<?xml version="1.0" encoding="utf-8"?>
<svg xmlns="http://www.w3.org/2000/svg" width="89" height="82" viewBox="0 0 89 82" fill="none"><path d="M83.5031 29.9C82.9031 29.3 82.0031 29.3 81.4031 29.9L78.0031 33.1C77.4031 33.7 76.4031 33.6 75.8031 33L48.8031 2.3C47.5031 0.8 45.7031 0 43.8031 0C41.9031 0 40.0031 0.8 38.8031 2.3L11.8031 33.1C11.2031 33.7 10.3031 33.8 9.70311 33.2L7.50311 31.2C6.90311 30.6 5.90311 30.7 5.40311 31.3C4.80311 31.9 4.90311 32.9 5.50311 33.4L14.4031 41.5C15.0031 42.1 16.0031 42 16.5031 41.4C17.1031 40.8 17.0031 39.8 16.4031 39.3L14.3031 37.4C13.6031 36.8 13.6031 35.7 14.2031 35L16.3031 32.5C17.1031 31.6 18.5031 32.2 18.5031 33.3V49.1C18.5031 55.9 24.0031 61.4 30.8031 61.4H57.0031C63.8031 61.4 69.3031 55.9 69.3031 49.1V33.6C69.3031 32.4 70.8031 31.8 71.6031 32.7L75.7031 37.4C76.3031 38 77.3031 38.1 77.9031 37.5L83.5031 32.1C84.0031 31.5 84.0031 30.5 83.5031 29.9ZM66.3031 48C66.3031 53.8 61.6031 58.5 55.8031 58.5H32.1031C26.2031 58.5 21.4031 53.7 21.4031 47.8V27.2C21.4031 26.8 21.5031 26.5 21.8031 26.2L41.1031 4.2C41.8031 3.5 42.8031 3 43.8031 3C44.9031 3 45.9031 3.5 46.6031 4.3L65.9031 26.3C66.1031 26.6 66.3031 26.9 66.3031 27.3V48Z" fill="#0891B2"/><path d="M44.3031 52.3C41.4031 52.3 38.5031 50.7 35.7031 47.4C35.1031 46.8 35.2031 45.8 35.9031 45.2C36.5031 44.7 37.4031 44.8 37.9031 45.4C40.2031 48.1 42.5031 49.4 44.6031 49.2C47.1031 49 49.0031 46.9 49.9031 45.6C50.3031 45 51.2031 44.8 51.8031 45.2C52.6031 45.6 52.8031 46.7 52.3031 47.4C51.0031 49.2 48.4031 51.9 44.8031 52.2C44.7031 52.3 44.5031 52.3 44.3031 52.3Z" fill="#0891B2"/><path d="M15.4827 78.0002L15.5127 78.0502L15.4827 78.0002Z" fill="#0891B2"/><path d="M10.2227 68.1902C10.0727 67.9802 9.84274 67.8302 9.54274 67.7302H9.46274C9.29274 67.7202 9.00274 67.7302 8.57274 67.7302C8.15274 67.7302 7.66274 67.7402 7.11274 67.7402H1.23274C0.842738 67.7402 0.542737 67.8502 0.332737 68.0702C0.132737 68.2802 0.0227425 68.5202 0.00274249 68.7902C-0.0172575 69.0502 0.0727425 69.2902 0.252742 69.5202C0.432743 69.7402 0.702741 69.8802 1.10274 69.9502H4.14274L4.16274 79.9402C4.21274 80.3102 4.34274 80.5902 4.56274 80.7702C4.77274 80.9602 5.01274 81.0502 5.26274 81.0502C5.53274 81.0502 5.78274 80.9502 6.00274 80.7402C6.22274 80.5302 6.35274 80.2402 6.36274 79.8402L6.34274 69.9402L9.38274 69.9202C9.71274 69.8602 9.96274 69.7302 10.1427 69.5502C10.3227 69.3602 10.4227 69.1402 10.4427 68.8902C10.4627 68.6502 10.3927 68.4202 10.2227 68.2002V68.1902Z" fill="#0891B2"/><path d="M18.4027 79.5202V79.4902C18.4027 79.4102 18.3727 79.3102 18.2427 79.0902C18.1627 78.9502 18.0627 78.8002 17.9627 78.6302C17.8627 78.4702 17.7727 78.3102 17.6827 78.1402C17.5927 77.9602 17.5627 77.8502 17.5527 77.7702C17.4127 76.8402 17.3527 75.9002 17.3727 74.9602C17.3827 74.0002 17.3927 73.0502 17.3927 72.1102V72.0302C17.2627 71.7002 17.0827 71.4602 16.8527 71.3002C16.6327 71.1502 16.4027 71.0902 16.1727 71.1102C15.7127 70.9502 15.0427 70.9602 14.4327 71.0902C14.1227 71.1502 13.8327 71.2302 13.5727 71.3302C13.2927 71.4302 13.0927 71.5202 12.9527 71.6102C12.7727 71.7202 12.5827 71.8402 12.4027 71.9702C12.2327 72.0902 12.0527 72.2202 11.8727 72.3402C11.6027 72.5302 11.3627 72.7602 11.1627 73.0202C10.9627 73.2702 10.7827 73.5502 10.6227 73.8302C10.5127 74.0202 10.4027 74.2102 10.2927 74.3902C10.1727 74.5902 10.0727 74.7902 10.0027 74.9902C9.83272 75.4402 9.70272 75.9102 9.63272 76.3902C9.56272 76.8802 9.55272 77.3702 9.62272 77.8402C9.69272 78.3202 9.84272 78.7802 10.0627 79.2002C10.2927 79.6302 10.6327 80.0102 11.0627 80.3202C11.5927 80.7002 12.1527 80.8902 12.7427 80.9102C12.9227 80.9102 13.1027 80.9102 13.2827 80.9102C13.6527 80.9102 14.0327 80.9102 14.4027 80.8802C14.7627 80.8602 15.1227 80.7402 15.4827 80.5202C15.7227 80.3702 15.9527 80.2002 16.1827 80.0302C16.2327 80.1102 16.2827 80.1802 16.3427 80.2502C16.4627 80.4102 16.5827 80.5502 16.7227 80.6802L16.7827 80.7302C17.0527 80.8602 17.3027 80.9202 17.5427 80.8802C17.7727 80.8502 17.9727 80.7602 18.1327 80.6202C18.2927 80.4802 18.3927 80.3002 18.4427 80.0902C18.4927 79.9002 18.4827 79.7002 18.4127 79.5002L18.4027 79.5202ZM13.6527 78.7602C13.4427 78.7502 13.2227 78.7402 12.9927 78.7402L12.6527 78.6302C12.5427 78.5902 12.4427 78.5502 12.3327 78.5102C12.2727 78.4502 12.2027 78.3902 12.1427 78.3302C12.0827 78.2602 12.0227 78.2002 11.9627 78.1402C11.9327 78.0402 11.9027 77.9502 11.8727 77.8502C11.8327 77.7502 11.8027 77.6502 11.7827 77.6102C11.7827 77.2002 11.8327 76.7902 11.9227 76.3902C12.0127 75.9902 12.1527 75.6002 12.3327 75.2402C12.5127 74.8802 12.7327 74.5502 13.0127 74.2602C13.2827 73.9702 13.6127 73.7402 14.0027 73.5502C14.0527 73.5302 14.1327 73.5002 14.2327 73.4602C14.3527 73.4202 14.4827 73.3802 14.6227 73.3302C14.7527 73.2902 14.8927 73.2502 15.0327 73.2202C15.0727 73.2202 15.1127 73.2102 15.1527 73.2002C15.1427 73.8802 15.1327 74.6102 15.1227 75.3902C15.1227 76.2302 15.1927 77.0702 15.3527 77.8702C15.1627 78.0402 14.9727 78.1902 14.7827 78.3202C14.5927 78.4502 14.4027 78.5802 14.2027 78.7102C14.0227 78.7602 13.8427 78.7802 13.6627 78.7702L13.6527 78.7602Z" fill="#0891B2"/><path d="M26.3427 76.4402C26.1427 75.9802 25.8628 75.6302 25.5028 75.3902C25.1728 75.1702 24.8027 74.9802 24.4027 74.8402C24.0227 74.7102 23.6327 74.5902 23.2327 74.4802C22.8727 74.3902 22.5427 74.2602 22.2427 74.1002C22.2027 74.0502 22.1727 74.0102 22.1327 73.9702C22.1027 73.9402 22.0627 73.9002 22.0527 73.8902C22.0027 73.7802 21.9827 73.7302 21.9727 73.7302C21.9627 73.5402 21.9827 73.3802 22.0327 73.2602C22.0927 73.1302 22.1827 72.9902 22.2727 72.8802C22.2927 72.8702 22.3127 72.8602 22.3327 72.8502C22.3827 72.8402 22.4427 72.8102 22.4927 72.7902C22.8227 72.7502 23.1527 72.7502 23.4827 72.7902C23.8227 72.8402 24.1427 72.9502 24.4627 73.1202C24.8028 73.2902 25.1128 73.3302 25.3928 73.2402C25.6628 73.1502 25.8728 73.0002 26.0028 72.7802C26.1428 72.5602 26.1827 72.3002 26.1327 72.0102C26.0827 71.7202 25.9027 71.4602 25.5627 71.2202C25.0127 70.9302 24.4127 70.7302 23.7927 70.6102C23.1627 70.4902 22.5227 70.5102 21.9227 70.6502C21.4727 70.7402 21.0727 70.9602 20.7227 71.3102C20.3927 71.6402 20.1328 72.0302 19.9628 72.4602C19.7928 72.8902 19.7127 73.3502 19.7327 73.8202C19.7527 74.3102 19.9227 74.7402 20.2128 75.1102C20.5128 75.5102 20.8328 75.8102 21.1828 75.9902C21.5028 76.1602 21.8428 76.3102 22.1828 76.4102C22.5128 76.5102 22.8527 76.6202 23.2027 76.7102C23.5127 76.8002 23.8227 76.9402 24.1327 77.1302C24.1727 77.1802 24.2128 77.2302 24.2528 77.2802C24.2928 77.3202 24.3227 77.3602 24.3527 77.4002L24.4527 77.6902C24.4527 77.6902 24.4527 77.7702 24.4527 77.8102C24.4527 77.8602 24.4427 77.9202 24.4427 77.9802C24.4227 78.0402 24.4028 78.1002 24.3928 78.1502C24.3928 78.1902 24.3727 78.2302 24.3727 78.2302C24.2927 78.3402 24.2327 78.4102 24.2027 78.4502L24.1428 78.5302C24.1428 78.5302 24.1127 78.5602 24.0827 78.5702C24.0427 78.6002 23.9727 78.6402 23.8827 78.7202L23.5327 78.8202C23.0827 78.7802 22.6627 78.6502 22.2627 78.4502C21.8627 78.2502 21.5127 77.9502 21.2127 77.5802L21.1627 77.5302C20.6227 77.1602 20.0427 77.1902 19.7027 77.5002C19.5327 77.6502 19.4127 77.8602 19.3627 78.1202C19.3127 78.3802 19.3627 78.6602 19.5127 78.9602L19.5327 79.0002C20.0027 79.6402 20.6227 80.1502 21.3727 80.5002C22.1227 80.8502 22.9028 81.0302 23.6828 81.0302C23.9028 81.0302 24.1427 80.9902 24.3827 80.9002C24.6127 80.8202 24.8327 80.7202 25.0427 80.5902C25.7827 80.1002 26.2827 79.4902 26.5227 78.7802C26.7727 78.0602 26.7127 77.2602 26.3627 76.4202L26.3427 76.4402Z" fill="#0891B2"/><path d="M30.8927 73.7002C31.1527 73.3702 31.4427 73.1202 31.7727 72.9702C32.0927 72.8202 32.4327 72.7902 32.8127 72.8702C33.1927 72.9502 33.6027 73.2002 34.0227 73.6202L34.0827 73.6702C34.3827 73.8202 34.6627 73.8702 34.9227 73.8202C35.1827 73.7702 35.3827 73.6502 35.5327 73.4802C35.6927 73.3002 35.7727 73.0802 35.7727 72.8002C35.7727 72.5202 35.6827 72.2802 35.4727 71.9802C35.1827 71.6902 34.8727 71.4502 34.5527 71.2602C34.2327 71.0702 33.8727 70.9102 33.4827 70.7802C32.6827 70.5302 31.9327 70.5302 31.2527 70.7802C30.5827 71.0202 30.0027 71.4102 29.5127 71.9402C29.0327 72.4602 28.6427 73.0702 28.3627 73.7702C28.0827 74.4602 27.9227 75.1602 27.8727 75.8502C27.8427 76.2702 27.8727 76.7002 27.9327 77.1302C28.0027 77.5602 28.1227 77.9802 28.2827 78.3602C28.5527 79.0702 28.9627 79.6402 29.5127 80.0502C30.0527 80.4602 30.6527 80.7202 31.3027 80.8202C31.4927 80.8502 31.6927 80.8602 31.8827 80.8602C32.3327 80.8602 32.7927 80.7802 33.2427 80.6302C33.9027 80.4102 34.4727 80.0302 34.9627 79.4902C35.1927 79.2102 35.3027 78.9102 35.2927 78.6202C35.2727 78.3302 35.1727 78.0902 34.9927 77.9102C34.8127 77.7302 34.5727 77.6302 34.2827 77.6102C34.0027 77.5902 33.6927 77.7002 33.4127 77.9402L33.3827 77.9602C33.1427 78.2202 32.8727 78.4102 32.5727 78.5302C32.2727 78.6502 31.9827 78.6902 31.7027 78.6602C31.4227 78.6302 31.1727 78.5302 30.9227 78.3402C30.6727 78.1602 30.4727 77.8902 30.3227 77.5402C30.1427 77.1502 30.0527 76.7102 30.0527 76.2402C30.0527 75.7702 30.1227 75.3002 30.2727 74.8602C30.4127 74.4202 30.6227 74.0302 30.8927 73.6902V73.7002Z" fill="#0891B2"/><path d="M45.7927 78.7902C45.6427 78.6002 45.5227 78.3702 45.4227 78.1102C45.3227 77.8302 45.2427 77.5202 45.1827 77.1802C45.1227 76.8402 45.0827 76.4702 45.0527 76.0902C45.0227 75.7102 45.0127 75.3302 45.0127 74.9402C45.0127 74.4502 45.0327 73.9802 45.0827 73.5302C45.1327 73.0702 45.1527 72.6702 45.1527 72.3402C45.1527 71.9702 45.0427 71.6702 44.8227 71.4602C44.3427 71.0002 43.6127 71.0802 43.2727 71.5802C43.1127 71.8202 42.9927 72.1302 42.9227 72.5102C42.8527 72.8702 42.8227 73.2602 42.8127 73.6702C42.8127 74.0802 42.8027 74.4902 42.8027 74.8902C42.8027 75.5402 42.8427 76.2102 42.9127 76.8702C42.8627 76.9002 42.8227 76.9402 42.7627 77.0002C42.6427 77.1702 42.5127 77.3502 42.3627 77.5202C42.2227 77.6902 42.0627 77.8402 41.9027 77.9602C41.7327 78.0902 41.5627 78.1802 41.3827 78.2602C41.2027 78.3302 41.0327 78.3702 40.8527 78.3702C40.3727 78.3702 39.9927 78.1602 39.7127 77.7302C39.4127 77.2802 39.2527 76.6802 39.2527 75.9602C39.2527 75.2802 39.2527 74.6502 39.2827 74.0502C39.3027 73.4402 39.3127 72.8202 39.3127 72.1602V72.1002C39.2227 71.7802 39.0727 71.5402 38.8727 71.3902C38.4427 71.0602 37.9127 71.0702 37.5227 71.4202C37.3327 71.5902 37.1927 71.8502 37.1127 72.2302C37.1127 72.6402 37.1027 73.1202 37.0727 73.6502C37.0427 74.1902 37.0327 74.7502 37.0327 75.3302C37.0327 75.8002 37.0527 76.2702 37.0927 76.7202C37.1327 77.1702 37.2127 77.5902 37.3327 77.9702C37.4527 78.3302 37.6327 78.6702 37.8827 79.0002C38.1227 79.3202 38.4027 79.6102 38.7227 79.8502C39.0427 80.0902 39.3827 80.2902 39.7527 80.4302C40.6327 80.7702 41.6427 80.7102 42.5427 80.2102C42.9327 79.9902 43.2927 79.7302 43.6127 79.4302C43.7427 79.6802 43.8927 79.9102 44.0527 80.1202C44.3227 80.4702 44.6527 80.6402 45.0427 80.6402C45.3327 80.6402 45.5827 80.5402 45.7727 80.3502C45.9727 80.1602 46.0827 79.9002 46.0827 79.6002C46.0827 79.3002 45.9927 79.0402 45.8027 78.8002L45.7927 78.7902Z" fill="#0891B2"/><path d="M54.7028 71.7102C54.4928 71.4702 54.2428 71.2702 53.9628 71.1202C53.6928 70.9702 53.4128 70.8602 53.1328 70.7902C52.8428 70.7102 52.6328 70.6802 52.4628 70.6802C51.9528 70.6802 51.4428 70.8102 50.9528 71.0602C50.5328 71.2702 50.1328 71.5402 49.7428 71.8502C49.5828 71.7202 49.3828 71.6002 49.1528 71.4902C48.3528 71.1102 47.8528 71.2202 47.5128 71.5702C47.3128 71.7802 47.2128 72.0202 47.2128 72.2902C47.2128 72.4902 47.2728 72.6902 47.3928 72.8802C47.5128 73.0702 47.6928 73.2302 47.9428 73.3602H47.9528V73.8602C47.9528 73.9102 47.9428 73.9602 47.9428 74.0002C47.9428 74.0402 47.9428 74.0902 47.9628 74.1902V79.9002C48.0128 80.2702 48.1428 80.5502 48.3628 80.7302C48.5728 80.9202 48.8128 81.0102 49.0628 81.0102C49.3328 81.0102 49.5828 80.9102 49.8028 80.7102C50.0228 80.5002 50.1428 80.2002 50.1628 79.8102V74.3802C50.2928 74.2502 50.4528 74.1002 50.6228 73.9402C50.8228 73.7502 51.0328 73.5802 51.2528 73.4202C51.4728 73.2602 51.6928 73.1202 51.9028 73.0102C52.2528 72.8302 52.5228 72.8202 52.7328 72.9502C52.8528 73.0302 52.9728 73.1102 53.0728 73.2102C53.1928 73.3202 53.3228 73.4202 53.4428 73.5102C53.8228 73.8002 54.3928 73.7402 54.7328 73.4102C54.9328 73.2202 55.0428 72.9602 55.0428 72.6602C55.0428 72.3102 54.9228 71.9902 54.6928 71.7202L54.7028 71.7102Z" fill="#0891B2"/><path d="M63.1228 79.5202V79.4902C63.1228 79.4102 63.0927 79.3102 62.9627 79.0902C62.8827 78.9502 62.7827 78.8002 62.6827 78.6302C62.5827 78.4702 62.4827 78.3102 62.4028 78.1402C62.3127 77.9602 62.2827 77.8502 62.2727 77.7702C62.1327 76.8402 62.0728 75.9002 62.0928 74.9602C62.1028 74.0002 62.1127 73.0502 62.1127 72.1102V72.0302C61.9827 71.7002 61.8027 71.4602 61.5727 71.3002C61.3527 71.1602 61.1227 71.0902 60.8927 71.1102C60.4327 70.9502 59.7727 70.9602 59.1528 71.0902C58.8428 71.1502 58.5527 71.2302 58.2927 71.3302C58.0127 71.4302 57.8127 71.5202 57.6727 71.6102C57.4827 71.7202 57.3028 71.8402 57.1228 71.9702C56.9528 72.0902 56.7728 72.2202 56.5928 72.3502C56.3228 72.5402 56.0827 72.7702 55.8827 73.0302C55.6827 73.2802 55.5028 73.5502 55.3428 73.8402C55.2328 74.0302 55.1228 74.2202 55.0128 74.3902C54.8928 74.5802 54.7927 74.7902 54.7227 74.9902C54.5527 75.4302 54.4327 75.9002 54.3527 76.4002C54.2827 76.9002 54.2728 77.3802 54.3428 77.8502C54.4128 78.3302 54.5627 78.7902 54.7827 79.2102C55.0127 79.6402 55.3527 80.0202 55.7827 80.3402C56.3127 80.7202 56.8727 80.9102 57.4627 80.9302C57.6427 80.9302 57.8227 80.9302 58.0027 80.9302C58.3727 80.9302 58.7528 80.9302 59.1228 80.9002C59.4828 80.8802 59.8427 80.7602 60.2027 80.5402C60.4427 80.3902 60.6727 80.2302 60.9028 80.0502C60.9528 80.1302 61.0027 80.2002 61.0627 80.2702C61.1827 80.4302 61.3027 80.5702 61.4427 80.7002L61.5027 80.7502C61.7727 80.8802 62.0228 80.9402 62.2628 80.9002C62.5028 80.8702 62.6927 80.7802 62.8527 80.6402C63.0127 80.5002 63.1127 80.3202 63.1727 80.1102C63.2227 79.9202 63.2127 79.7202 63.1427 79.5202H63.1228ZM58.3728 78.7602C58.1628 78.7502 57.9427 78.7402 57.7127 78.7402L57.3728 78.6302C57.2628 78.5902 57.1627 78.5502 57.0527 78.5102C56.9827 78.4502 56.9227 78.3902 56.8627 78.3302C56.8027 78.2602 56.7427 78.2002 56.6827 78.1402C56.6527 78.0402 56.6228 77.9502 56.5928 77.8502C56.5528 77.7502 56.5227 77.6502 56.5027 77.6002C56.5027 77.1902 56.5527 76.7802 56.6427 76.3802C56.7327 75.9802 56.8727 75.5902 57.0527 75.2302C57.2327 74.8702 57.4528 74.5402 57.7328 74.2502C58.0028 73.9602 58.3327 73.7302 58.7227 73.5502C58.7727 73.5302 58.8527 73.4902 58.9627 73.4602C59.0827 73.4202 59.2027 73.3802 59.3527 73.3302C59.4827 73.2902 59.6228 73.2502 59.7628 73.2202C59.8028 73.2202 59.8427 73.2102 59.8827 73.2002C59.8727 73.8802 59.8627 74.6102 59.8527 75.3902C59.8527 76.2402 59.9227 77.0702 60.0827 77.8702C59.8927 78.0402 59.7028 78.1802 59.5128 78.3202C59.3228 78.4502 59.1327 78.5802 58.9327 78.7102C58.7527 78.7602 58.5727 78.7802 58.3927 78.7702L58.3728 78.7602Z" fill="#0891B2"/><path d="M70.4027 71.5502C70.2427 71.3502 70.0027 71.2002 69.6927 71.1202H67.8827V67.9502C67.7927 67.6302 67.6427 67.3902 67.4427 67.2402C67.0227 66.9102 66.4727 66.9202 66.0927 67.2702C65.9027 67.4402 65.7727 67.6902 65.6727 68.0802V71.1102H64.7627C64.3627 71.1102 64.0627 71.2302 63.8527 71.4802C63.6527 71.7102 63.5527 71.9602 63.5527 72.2102C63.5527 72.4602 63.6427 72.7002 63.8327 72.9202C64.0227 73.1302 64.3027 73.2702 64.6927 73.3202H65.6727C65.6727 74.3202 65.6727 75.3502 65.6827 76.4002C65.6827 77.5402 65.6827 78.6402 65.6927 79.7602C65.7427 80.1302 65.8727 80.4002 66.0827 80.5902C66.2927 80.7802 66.5327 80.8702 66.7927 80.8702C67.0527 80.8702 67.2927 80.7702 67.5227 80.5702C67.7627 80.3602 67.8927 80.0602 67.8927 79.6602C67.8927 78.5902 67.8927 77.4902 67.8727 76.3602C67.8627 75.3202 67.8627 74.3002 67.8727 73.3202H69.6227C69.9427 73.2302 70.2027 73.1002 70.3727 72.9102C70.5527 72.7102 70.6427 72.4802 70.6427 72.2202C70.6427 71.9802 70.5627 71.7602 70.4027 71.5602V71.5502Z" fill="#0891B2"/><path d="M79.1327 74.8002C79.0127 74.0402 78.7527 73.3602 78.3827 72.7602C78.0027 72.1602 77.4827 71.6902 76.8427 71.3602C76.1927 71.0302 75.4227 70.9602 74.5627 71.1502C74.0527 71.2702 73.5827 71.4602 73.1627 71.7202C72.7527 71.9802 72.3827 72.3002 72.0627 72.6602C71.7427 73.0202 71.4627 73.4302 71.2427 73.8602C71.0127 74.3002 70.8227 74.7402 70.6627 75.1902L70.5927 75.4902C70.5227 75.8602 70.4727 76.2302 70.4527 76.6002C70.4327 76.9802 70.4527 77.3702 70.5327 77.7602C70.6527 78.3902 70.8727 78.9602 71.1927 79.4502C71.5127 79.9502 71.9127 80.3502 72.3727 80.6702C72.8427 80.9802 73.3727 81.1702 73.9627 81.2402C74.0827 81.2502 74.2127 81.2602 74.3327 81.2602C74.8027 81.2602 75.2927 81.1602 75.7927 80.9602C76.6327 80.6202 77.3427 80.0802 77.8927 79.3402C78.4327 78.6102 78.8227 77.8102 79.0327 76.9702C79.2227 76.2702 79.2527 75.5302 79.1327 74.7802V74.8002ZM76.9127 76.4102C76.7827 76.9002 76.5827 77.3602 76.3227 77.7802C76.0727 78.1902 75.7327 78.5202 75.3127 78.7802C75.0027 78.9602 74.7027 79.0602 74.4027 79.0702C74.0827 79.0902 73.8427 79.0102 73.6127 78.8702C73.3727 78.7302 73.1627 78.5302 72.9927 78.2602C72.8227 78.0002 72.7127 77.7002 72.6727 77.3602C72.6327 77.0702 72.6227 76.8202 72.6427 76.5902C72.6627 76.3602 72.7027 76.1102 72.7527 75.8302C72.9227 75.3202 73.1627 74.8302 73.4627 74.3902C73.7527 73.9602 74.1527 73.6402 74.6627 73.4202C75.1127 73.2402 75.4927 73.2202 75.8027 73.3502C76.1227 73.4902 76.3827 73.7202 76.5827 74.0302C76.7827 74.3602 76.9127 74.7502 76.9727 75.1802C77.0327 75.6202 77.0127 76.0302 76.9027 76.4102H76.9127Z" fill="#0891B2"/><path d="M87.7127 71.7102C87.5027 71.4702 87.2527 71.2702 86.9727 71.1102C86.7027 70.9602 86.4127 70.8502 86.1427 70.7802C85.8527 70.7002 85.6427 70.6702 85.4727 70.6702C84.9627 70.6702 84.4527 70.8002 83.9627 71.0502C83.5527 71.2602 83.1427 71.5302 82.7527 71.8402C82.5927 71.7102 82.3927 71.5902 82.1627 71.4802C81.3627 71.1002 80.8627 71.2102 80.5227 71.5602C80.3227 71.7702 80.2227 72.0102 80.2227 72.2802C80.2227 72.4802 80.2827 72.6802 80.4027 72.8702C80.5227 73.0602 80.7127 73.2202 80.9527 73.3502H80.9627V73.8402C80.9527 73.8902 80.9527 73.9402 80.9527 73.9802C80.9527 74.0202 80.9527 74.0702 80.9727 74.1702V79.8802C81.0227 80.2402 81.1627 80.5202 81.3727 80.7102C81.5827 80.9002 81.8227 80.9902 82.0727 80.9902C82.3427 80.9902 82.5927 80.8902 82.8127 80.6902C83.0327 80.4802 83.1527 80.1802 83.1727 79.7902V74.3602C83.3027 74.2302 83.4627 74.0802 83.6327 73.9202C83.8327 73.7302 84.0427 73.5602 84.2627 73.4002C84.4827 73.2402 84.7027 73.1102 84.9127 72.9902C85.2527 72.8102 85.5327 72.7902 85.7427 72.9302C85.8627 73.0102 85.9827 73.0902 86.0827 73.1902C86.2027 73.3002 86.3327 73.4002 86.4527 73.4902C86.8327 73.7802 87.4027 73.7202 87.7427 73.3902C87.9427 73.2002 88.0527 72.9402 88.0527 72.6402C88.0527 72.2902 87.9327 71.9702 87.7027 71.7002L87.7127 71.7102Z" fill="#0891B2"/></svg>
