<svg width="256" height="256" viewBox="0 0 256 256" fill="none" xmlns="http://www.w3.org/2000/svg">
<rect width="256" height="256" fill="white"/>
<path d="M220.154 125.611C218.737 124.194 216.612 124.194 215.195 125.611L207.165 133.168C205.748 134.585 203.387 134.349 201.97 132.932L138.444 60.4316C135.374 56.8893 131.123 55 126.636 55C122.149 55 117.662 56.8893 114.828 60.4316L51.066 133.168C49.649 134.585 47.5236 134.821 46.1067 133.404L40.9113 128.681C39.4943 127.264 37.1328 127.5 35.952 128.917C34.535 130.334 34.7712 132.695 36.1881 133.876L57.206 153.005C58.623 154.422 60.9845 154.186 62.1653 152.769C63.5823 151.352 63.3461 148.99 61.9292 147.809L56.9699 143.322C55.3168 141.906 55.3168 139.308 56.7337 137.655L61.9292 131.751C63.5823 129.625 67.1246 131.042 67.1246 133.64V167.647C67.1246 185.594 81.5302 200 99.478 200H154.975C172.687 200 187.328 185.358 187.328 167.647V134.349C187.328 131.515 190.871 130.098 192.76 132.223L202.442 143.322C203.859 144.739 205.985 144.976 207.638 143.559L220.862 130.806C221.335 129.389 221.335 127.028 220.154 125.611Z" fill="#0991B2"/>
<path d="M127.582 178.51C120.733 178.51 113.885 174.731 107.272 166.938C105.855 165.521 106.091 163.16 107.744 161.743C109.161 160.562 111.287 160.798 112.468 162.215C117.899 168.591 123.331 171.661 128.29 171.189C134.194 170.717 138.681 165.757 140.806 162.687C141.751 161.27 143.876 160.798 145.293 161.743C147.183 162.687 147.655 165.285 146.474 166.938C143.404 171.189 137.264 177.565 128.762 178.274C128.526 178.51 128.054 178.51 127.582 178.51Z" fill="white"/>
</svg>
