<svg width="20" height="22" viewBox="0 0 20 22" fill="none" xmlns="http://www.w3.org/2000/svg">
<g id="icon/calendar">
<path id="Vector (Stroke)" fill-rule="evenodd" clip-rule="evenodd" d="M3 4C2.44772 4 2 4.44772 2 5V19C2 19.5523 2.44772 20 3 20H17C17.5523 20 18 19.5523 18 19V5C18 4.44772 17.5523 4 17 4H3ZM0 5C0 3.34315 1.34315 2 3 2H17C18.6569 2 20 3.34315 20 5V19C20 20.6569 18.6569 22 17 22H3C1.34315 22 0 20.6569 0 19V5Z" fill="#333333"/>
<path id="Vector (Stroke)_2" fill-rule="evenodd" clip-rule="evenodd" d="M14 0C14.5523 0 15 0.447715 15 1V5C15 5.55228 14.5523 6 14 6C13.4477 6 13 5.55228 13 5V1C13 0.447715 13.4477 0 14 0Z" fill="#333333"/>
<path id="Vector (Stroke)_3" fill-rule="evenodd" clip-rule="evenodd" d="M6 0C6.55228 0 7 0.447715 7 1V5C7 5.55228 6.55228 6 6 6C5.44772 6 5 5.55228 5 5V1C5 0.447715 5.44772 0 6 0Z" fill="#333333"/>
<path id="Vector (Stroke)_4" fill-rule="evenodd" clip-rule="evenodd" d="M0 9C0 8.44772 0.447715 8 1 8H19C19.5523 8 20 8.44772 20 9C20 9.55228 19.5523 10 19 10H1C0.447715 10 0 9.55228 0 9Z" fill="#333333"/>
<path id="Vector (Stroke)_5" fill-rule="evenodd" clip-rule="evenodd" d="M5 13C5 12.4477 5.44772 12 6 12H6.01C6.56228 12 7.01 12.4477 7.01 13C7.01 13.5523 6.56228 14 6.01 14H6C5.44772 14 5 13.5523 5 13Z" fill="#333333"/>
<path id="Vector (Stroke)_6" fill-rule="evenodd" clip-rule="evenodd" d="M9 13C9 12.4477 9.44772 12 10 12H10.01C10.5623 12 11.01 12.4477 11.01 13C11.01 13.5523 10.5623 14 10.01 14H10C9.44772 14 9 13.5523 9 13Z" fill="#333333"/>
<path id="Vector (Stroke)_7" fill-rule="evenodd" clip-rule="evenodd" d="M13 13C13 12.4477 13.4477 12 14 12H14.01C14.5623 12 15.01 12.4477 15.01 13C15.01 13.5523 14.5623 14 14.01 14H14C13.4477 14 13 13.5523 13 13Z" fill="#333333"/>
<path id="Vector (Stroke)_8" fill-rule="evenodd" clip-rule="evenodd" d="M5 17C5 16.4477 5.44772 16 6 16H6.01C6.56228 16 7.01 16.4477 7.01 17C7.01 17.5523 6.56228 18 6.01 18H6C5.44772 18 5 17.5523 5 17Z" fill="#333333"/>
<path id="Vector (Stroke)_9" fill-rule="evenodd" clip-rule="evenodd" d="M9 17C9 16.4477 9.44772 16 10 16H10.01C10.5623 16 11.01 16.4477 11.01 17C11.01 17.5523 10.5623 18 10.01 18H10C9.44772 18 9 17.5523 9 17Z" fill="#333333"/>
<path id="Vector (Stroke)_10" fill-rule="evenodd" clip-rule="evenodd" d="M13 17C13 16.4477 13.4477 16 14 16H14.01C14.5623 16 15.01 16.4477 15.01 17C15.01 17.5523 14.5623 18 14.01 18H14C13.4477 18 13 17.5523 13 17Z" fill="#333333"/>
</g>
</svg>
