<svg width="22" height="22" viewBox="0 0 22 22" fill="none" xmlns="http://www.w3.org/2000/svg">
<g id="Group 369">
<g id="Group 367">
<path id="Vector" d="M11 22C17.0753 22 22 17.0753 22 11C22 4.9247 17.0753 0 11 0C4.9247 0 0 4.9247 0 11C0 17.0753 4.9247 22 11 22Z" fill="#06B6D4"/>
</g>
<path id="Vector (Stroke)" fill-rule="evenodd" clip-rule="evenodd" d="M15.6339 7.36612C16.122 7.85427 16.122 8.64573 15.6339 9.13388L10.6339 14.1339C10.1457 14.622 9.35427 14.622 8.86612 14.1339L6.36612 11.6339C5.87796 11.1457 5.87796 10.3543 6.36612 9.86612C6.85427 9.37796 7.64573 9.37796 8.13388 9.86612L9.75 11.4822L13.8661 7.36612C14.3543 6.87796 15.1457 6.87796 15.6339 7.36612Z" fill="white"/>
</g>
</svg>
