<svg width="23" height="23" viewBox="0 0 23 23" fill="none" xmlns="http://www.w3.org/2000/svg">
<g id="icon/edit">
<path id="Vector (Stroke)" fill-rule="evenodd" clip-rule="evenodd" d="M0.87868 3.87868C1.44129 3.31607 2.20435 3 3 3H10C10.5523 3 11 3.44772 11 4C11 4.55228 10.5523 5 10 5H3C2.73478 5 2.48043 5.10536 2.29289 5.29289C2.10536 5.48043 2 5.73478 2 6V20C2 20.2652 2.10536 20.5196 2.29289 20.7071C2.48043 20.8946 2.73478 21 3 21H17C17.2652 21 17.5196 20.8946 17.7071 20.7071C17.8946 20.5196 18 20.2652 18 20V13C18 12.4477 18.4477 12 19 12C19.5523 12 20 12.4477 20 13V20C20 20.7957 19.6839 21.5587 19.1213 22.1213C18.5587 22.6839 17.7957 23 17 23H3C2.20435 23 1.44129 22.6839 0.87868 22.1213C0.31607 21.5587 0 20.7957 0 20V6C0 5.20435 0.31607 4.44129 0.87868 3.87868Z" fill="#333333"/>
<path id="Vector (Stroke)_2" fill-rule="evenodd" clip-rule="evenodd" d="M19 2.87866C18.7026 2.87866 18.4174 2.9968 18.2071 3.20709L8.90299 12.5112L8.37439 14.6256L10.4888 14.097L19.7929 4.79288C20.0032 4.58259 20.1213 4.29737 20.1213 3.99998C20.1213 3.70259 20.0032 3.41738 19.7929 3.20709C19.5826 2.9968 19.2974 2.87866 19 2.87866ZM16.7929 1.79288C17.3783 1.20751 18.1722 0.878662 19 0.878662C19.8278 0.878662 20.6218 1.20751 21.2071 1.79288C21.7925 2.37824 22.1213 3.17216 22.1213 3.99998C22.1213 4.82781 21.7925 5.62173 21.2071 6.20709L11.7071 15.7071C11.579 15.8352 11.4184 15.9262 11.2426 15.9701L7.24256 16.9701C6.90178 17.0553 6.54129 16.9555 6.29291 16.7071C6.04453 16.4587 5.94468 16.0982 6.02988 15.7574L7.02988 11.7574C7.07384 11.5816 7.16476 11.421 7.29291 11.2929L16.7929 1.79288Z" fill="#333333"/>
</g>
</svg>
