<svg width="20" height="12" viewBox="0 0 20 12" fill="none" xmlns="http://www.w3.org/2000/svg">
<g id="Group">
<path id="Vector (Stroke)" fill-rule="evenodd" clip-rule="evenodd" d="M18.5291 7.36463C15.109 -0.367921 4.89097 -0.367921 1.47087 7.36463C1.29654 7.75879 0.841155 7.93452 0.453747 7.75716C0.0663387 7.57979 -0.106392 7.11648 0.0679414 6.72232C4.03231 -2.24077 15.9677 -2.24077 19.9321 6.72232C20.1064 7.11648 19.9337 7.57979 19.5463 7.75716C19.1588 7.93452 18.7035 7.75879 18.5291 7.36463Z" fill="black"/>
<path id="Vector" d="M9.99972 11.2174C9.59566 11.2174 9.19555 11.1364 8.82225 10.9791C8.44895 10.8218 8.10976 10.5912 7.82404 10.3005C7.53833 10.0098 7.31169 9.66475 7.15706 9.28494C7.00244 8.90514 6.92285 8.49807 6.92285 8.08698C6.92285 7.67588 7.00244 7.26881 7.15706 6.88901C7.31169 6.50921 7.53833 6.16411 7.82404 5.87343C8.10976 5.58274 8.44895 5.35215 8.82225 5.19483C9.19555 5.03751 9.59566 4.95654 9.99972 4.95654C10.8158 4.95654 11.5984 5.28636 12.1754 5.87343C12.7524 6.4605 13.0766 7.25673 13.0766 8.08698C13.0766 8.91722 12.7524 9.71346 12.1754 10.3005C11.5984 10.8876 10.8158 11.2174 9.99972 11.2174Z" fill="black"/>
<path id="Vector (Stroke)_2" fill-rule="evenodd" clip-rule="evenodd" d="M10.0004 5.73917C9.69733 5.73917 9.39726 5.7999 9.11728 5.91788C8.8373 6.03587 8.58291 6.20881 8.36862 6.42683C8.15434 6.64485 7.98436 6.90367 7.86839 7.18852C7.75242 7.47337 7.69273 7.77867 7.69273 8.08699C7.69273 8.39531 7.75242 8.70062 7.86839 8.98547C7.98436 9.27032 8.15434 9.52914 8.36862 9.74716C8.58291 9.96517 8.8373 10.1381 9.11728 10.2561C9.39726 10.3741 9.69733 10.4348 10.0004 10.4348C10.6124 10.4348 11.1994 10.1875 11.6321 9.74716C12.0649 9.30686 12.308 8.70968 12.308 8.08699C12.308 7.46431 12.0649 6.86713 11.6321 6.42683C11.1994 5.98653 10.6124 5.73917 10.0004 5.73917ZM8.52855 4.47181C8.99517 4.27516 9.4953 4.17395 10.0004 4.17395C11.0204 4.17395 11.9987 4.58622 12.72 5.32005C13.4412 6.05389 13.8465 7.04919 13.8465 8.08699C13.8465 9.1248 13.4412 10.1201 12.72 10.8539C11.9987 11.5878 11.0204 12 10.0004 12C9.4953 12 8.99517 11.8988 8.52855 11.7022C8.06192 11.5055 7.63793 11.2173 7.28079 10.8539C6.92365 10.4906 6.64035 10.0592 6.44706 9.58445C6.25378 9.1097 6.1543 8.60086 6.1543 8.08699C6.1543 7.57313 6.25378 7.06429 6.44706 6.58954C6.64035 6.11478 6.92365 5.68341 7.28079 5.32005C7.63793 4.95669 8.06192 4.66846 8.52855 4.47181Z" fill="black"/>
</g>
</svg>
