<svg width="22" height="24" viewBox="0 0 22 24" fill="none" xmlns="http://www.w3.org/2000/svg">
<g id="icon/home">
<path id="Union" fill-rule="evenodd" clip-rule="evenodd" d="M11.5788 0.229798C11.1849 -0.0765992 10.6333 -0.0765992 10.2393 0.229798L0.421156 7.86616C0.155425 8.07284 0 8.39063 0 8.72727V20.7273C0 21.5953 0.344804 22.4277 0.95856 23.0414C1.57231 23.6552 2.40475 24 3.27273 24H7.63636H14.1818H18.5455C19.4134 24 20.2459 23.6552 20.8596 23.0414C21.4734 22.4277 21.8182 21.5953 21.8182 20.7273V8.72727C21.8182 8.39063 21.6628 8.07284 21.397 7.86616L11.5788 0.229798ZM15.2727 21.8182H18.5455C18.8348 21.8182 19.1123 21.7032 19.3168 21.4987C19.5214 21.2941 19.6364 21.0166 19.6364 20.7273V9.26082L10.9091 2.47294L2.18182 9.26082V20.7273C2.18182 21.0166 2.29675 21.2941 2.50134 21.4987C2.70592 21.7032 2.9834 21.8182 3.27273 21.8182H6.54545V12C6.54545 11.3975 7.03387 10.9091 7.63636 10.9091H14.1818C14.7843 10.9091 15.2727 11.3975 15.2727 12V21.8182ZM8.72727 21.8182V13.0909H13.0909V21.8182H8.72727Z" fill="#333333"/>
</g>
</svg>
