<svg width="60" height="50" viewBox="0 0 60 50" fill="none" xmlns="http://www.w3.org/2000/svg">
<g id="mail">
<path id="Vector (Stroke)" fill-rule="evenodd" clip-rule="evenodd" d="M8.66634 6.66675C7.37768 6.66675 6.33301 7.71142 6.33301 9.00008V41.0001C6.33301 42.2887 7.37768 43.3334 8.66634 43.3334H51.333C52.6217 43.3334 53.6663 42.2887 53.6663 41.0001V9.00008C53.6663 7.71142 52.6217 6.66675 51.333 6.66675H8.66634ZM0.333008 9.00008C0.333008 4.39771 4.06397 0.666748 8.66634 0.666748H51.333C55.9354 0.666748 59.6663 4.39771 59.6663 9.00008V41.0001C59.6663 45.6025 55.9354 49.3334 51.333 49.3334H8.66634C4.06397 49.3334 0.333008 45.6025 0.333008 41.0001V9.00008Z" fill="#7DD3FC"/>
<path id="Vector (Stroke)_2" fill-rule="evenodd" clip-rule="evenodd" d="M0.801358 10.0577C1.68997 8.65926 3.54397 8.24599 4.94237 9.13461L28.8526 24.3284C29.197 24.5425 29.5945 24.656 30.0001 24.656C30.4057 24.656 30.8031 24.5425 31.1475 24.3284L55.0577 9.13461C56.4561 8.24599 58.3101 8.65926 59.1988 10.0577C60.0874 11.4561 59.6741 13.3101 58.2757 14.1987L34.3557 29.3987L34.3395 29.4089C33.0388 30.2238 31.5349 30.656 30.0001 30.656C28.4652 30.656 26.9613 30.2238 25.6606 29.4089L25.6444 29.3987L1.72441 14.1987C0.326004 13.3101 -0.0872583 11.4561 0.801358 10.0577Z" fill="#7DD3FC"/>
</g>
</svg>
