<svg width="20" height="4" viewBox="0 0 20 4" fill="none" xmlns="http://www.w3.org/2000/svg">
<g id="icon/menu-meatball ">
<path id="Union" fill-rule="evenodd" clip-rule="evenodd" d="M3.41421 3.41421C3.78929 3.03914 4 2.53043 4 2C4 1.46957 3.78929 0.96086 3.41421 0.585787C3.03914 0.210714 2.53043 0 2 0C1.46957 0 0.960859 0.210714 0.585786 0.585787C0.210714 0.96086 0 1.46957 0 2C0 2.53043 0.210714 3.03914 0.585786 3.41421C0.960859 3.78929 1.46957 4 2 4C2.53043 4 3.03914 3.78929 3.41421 3.41421ZM20 2C20 2.53043 19.7893 3.03914 19.4142 3.41421C19.0391 3.78929 18.5304 4 18 4C17.4696 4 16.9609 3.78929 16.5858 3.41421C16.2107 3.03914 16 2.53043 16 2C16 1.46957 16.2107 0.96086 16.5858 0.585787C16.9609 0.210714 17.4696 0 18 0C18.5304 0 19.0391 0.210714 19.4142 0.585787C19.7893 0.96086 20 1.46957 20 2ZM12 2C12 2.53043 11.7893 3.03914 11.4142 3.41421C11.0391 3.78929 10.5304 4 10 4C9.46957 4 8.96086 3.78929 8.58579 3.41421C8.21071 3.03914 8 2.53043 8 2C8 1.46957 8.21071 0.96086 8.58579 0.585787C8.96086 0.210714 9.46957 0 10 0C10.5304 0 11.0391 0.210714 11.4142 0.585787C11.7893 0.96086 12 1.46957 12 2Z" fill="#333333"/>
</g>
</svg>
