<svg width="48" height="48" viewBox="0 0 48 48" fill="none" xmlns="http://www.w3.org/2000/svg">
<circle cx="24" cy="24" r="24" fill="#CBD5E1"/>
<path fill-rule="evenodd" clip-rule="evenodd" d="M17.4645 27.4645C18.4021 26.5268 19.6739 26 21 26H27C28.3261 26 29.5979 26.5268 30.5355 27.4645C31.4732 28.4021 32 29.6739 32 31V33C32 33.5523 31.5523 34 31 34C30.4477 34 30 33.5523 30 33V31C30 30.2044 29.6839 29.4413 29.1213 28.8787C28.5587 28.3161 27.7956 28 27 28H21C20.2044 28 19.4413 28.3161 18.8787 28.8787C18.3161 29.4413 18 30.2044 18 31V33C18 33.5523 17.5523 34 17 34C16.4477 34 16 33.5523 16 33V31C16 29.6739 16.5268 28.4021 17.4645 27.4645Z" fill="#333333"/>
<path fill-rule="evenodd" clip-rule="evenodd" d="M24 16C22.3431 16 21 17.3431 21 19C21 20.6569 22.3431 22 24 22C25.6569 22 27 20.6569 27 19C27 17.3431 25.6569 16 24 16ZM19 19C19 16.2386 21.2386 14 24 14C26.7614 14 29 16.2386 29 19C29 21.7614 26.7614 24 24 24C21.2386 24 19 21.7614 19 19Z" fill="#333333"/>
</svg>
