<svg width="20" height="22" viewBox="0 0 20 22" fill="none" xmlns="http://www.w3.org/2000/svg">
<g id="icon/trash">
<path id="Vector (Stroke)" fill-rule="evenodd" clip-rule="evenodd" d="M0 5C0 4.44772 0.447715 4 1 4H19C19.5523 4 20 4.44772 20 5C20 5.55228 19.5523 6 19 6H1C0.447715 6 0 5.55228 0 5Z" fill="#333333"/>
<path id="Vector (Stroke)_2" fill-rule="evenodd" clip-rule="evenodd" d="M3 4C3.55228 4 4 4.44772 4 5V19C4 19.1748 4.09745 19.4332 4.33211 19.6679C4.56676 19.9025 4.82523 20 5 20H15C15.1748 20 15.4332 19.9025 15.6679 19.6679C15.9025 19.4332 16 19.1748 16 19V5C16 4.44772 16.4477 4 17 4C17.5523 4 18 4.44772 18 5V19C18 19.8252 17.5975 20.5668 17.0821 21.0821C16.5668 21.5975 15.8252 22 15 22H5C4.17477 22 3.43324 21.5975 2.91789 21.0821C2.40255 20.5668 2 19.8252 2 19V5C2 4.44772 2.44772 4 3 4Z" fill="#333333"/>
<path id="Vector (Stroke)_3" fill-rule="evenodd" clip-rule="evenodd" d="M7.33211 2.33211C7.09745 2.56676 7 2.82523 7 3V5C7 5.55228 6.55228 6 6 6C5.44772 6 5 5.55228 5 5V3C5 2.17477 5.40255 1.43324 5.91789 0.917893C6.43324 0.402547 7.17477 0 8 0H12C12.8252 0 13.5668 0.402547 14.0821 0.917893C14.5975 1.43324 15 2.17477 15 3V5C15 5.55228 14.5523 6 14 6C13.4477 6 13 5.55228 13 5V3C13 2.82523 12.9025 2.56676 12.6679 2.33211C12.4332 2.09745 12.1748 2 12 2H8C7.82523 2 7.56676 2.09745 7.33211 2.33211Z" fill="#333333"/>
<path id="Vector (Stroke)_4" fill-rule="evenodd" clip-rule="evenodd" d="M8 9C8.55228 9 9 9.44772 9 10V16C9 16.5523 8.55228 17 8 17C7.44772 17 7 16.5523 7 16V10C7 9.44772 7.44772 9 8 9Z" fill="#333333"/>
<path id="Vector (Stroke)_5" fill-rule="evenodd" clip-rule="evenodd" d="M12 9C12.5523 9 13 9.44772 13 10V16C13 16.5523 12.5523 17 12 17C11.4477 17 11 16.5523 11 16V10C11 9.44772 11.4477 9 12 9Z" fill="#333333"/>
</g>
</svg>
