<svg width="16" height="20" viewBox="0 0 16 20" fill="none" xmlns="http://www.w3.org/2000/svg">
<g id="icon/user">
<path id="Vector (Stroke)" fill-rule="evenodd" clip-rule="evenodd" d="M1.46447 13.4645C2.40215 12.5268 3.67392 12 5 12H11C12.3261 12 13.5979 12.5268 14.5355 13.4645C15.4732 14.4021 16 15.6739 16 17V19C16 19.5523 15.5523 20 15 20C14.4477 20 14 19.5523 14 19V17C14 16.2044 13.6839 15.4413 13.1213 14.8787C12.5587 14.3161 11.7956 14 11 14H5C4.20435 14 3.44129 14.3161 2.87868 14.8787C2.31607 15.4413 2 16.2044 2 17V19C2 19.5523 1.55228 20 1 20C0.447715 20 0 19.5523 0 19V17C0 15.6739 0.526784 14.4021 1.46447 13.4645Z" fill="black"/>
<path id="Vector (Stroke)_2" fill-rule="evenodd" clip-rule="evenodd" d="M8 2C6.34315 2 5 3.34315 5 5C5 6.65685 6.34315 8 8 8C9.65685 8 11 6.65685 11 5C11 3.34315 9.65685 2 8 2ZM3 5C3 2.23858 5.23858 0 8 0C10.7614 0 13 2.23858 13 5C13 7.76142 10.7614 10 8 10C5.23858 10 3 7.76142 3 5Z" fill="black"/>
</g>
</svg>
