<svg width="22" height="20" viewBox="0 0 22 20" fill="none" xmlns="http://www.w3.org/2000/svg">
<g id="icon/users">
<path id="Vector (Stroke)" fill-rule="evenodd" clip-rule="evenodd" d="M1.46447 13.4645C2.40215 12.5268 3.67392 12 5 12H11C12.3261 12 13.5979 12.5268 14.5355 13.4645C15.4732 14.4021 16 15.6739 16 17V19C16 19.5523 15.5523 20 15 20C14.4477 20 14 19.5523 14 19V17C14 16.2044 13.6839 15.4413 13.1213 14.8787C12.5587 14.3161 11.7956 14 11 14H5C4.20435 14 3.44129 14.3161 2.87868 14.8787C2.31607 15.4413 2 16.2044 2 17V19C2 19.5523 1.55228 20 1 20C0.447715 20 0 19.5523 0 19V17C0 15.6739 0.526784 14.4021 1.46447 13.4645Z" fill="#333333"/>
<path id="Vector (Stroke)_2" fill-rule="evenodd" clip-rule="evenodd" d="M8 2C6.34315 2 5 3.34315 5 5C5 6.65685 6.34315 8 8 8C9.65685 8 11 6.65685 11 5C11 3.34315 9.65685 2 8 2ZM3 5C3 2.23858 5.23858 0 8 0C10.7614 0 13 2.23858 13 5C13 7.76142 10.7614 10 8 10C5.23858 10 3 7.76142 3 5Z" fill="#333333"/>
<path id="Vector (Stroke)_3" fill-rule="evenodd" clip-rule="evenodd" d="M17.032 12.88C17.1701 12.3453 17.7155 12.0237 18.2502 12.1618C19.3229 12.4387 20.2732 13.0641 20.9519 13.9397C21.6307 14.8152 21.9994 15.8914 22.0002 16.9993L22.0002 19C22.0002 19.5523 21.5525 20 21.0002 20C20.448 20 20.0002 19.5523 20.0002 19L20.0002 17.0007C20.0002 17.0006 20.0002 17.0008 20.0002 17.0007C19.9997 16.3361 19.7784 15.6902 19.3713 15.165C18.964 14.6396 18.3938 14.2644 17.7502 14.0982C17.2155 13.9602 16.8939 13.4148 17.032 12.88Z" fill="#333333"/>
<path id="Vector (Stroke)_4" fill-rule="evenodd" clip-rule="evenodd" d="M14.0315 0.881962C14.1685 0.346936 14.7133 0.0242632 15.2483 0.161251C16.3238 0.436628 17.2771 1.06213 17.9578 1.93914C18.6386 2.81615 19.0081 3.89479 19.0081 5.005C19.0081 6.11521 18.6386 7.19385 17.9578 8.07086C17.2771 8.94787 16.3238 9.57337 15.2483 9.84875C14.7133 9.98574 14.1685 9.66307 14.0315 9.12804C13.8945 8.59301 14.2172 8.04824 14.7522 7.91125C15.3975 7.74603 15.9695 7.37073 16.3779 6.84452C16.7864 6.31831 17.0081 5.67113 17.0081 5.005C17.0081 4.33887 16.7864 3.69169 16.3779 3.16548C15.9695 2.63928 15.3975 2.26398 14.7522 2.09875C14.2172 1.96176 13.8945 1.41699 14.0315 0.881962Z" fill="#333333"/>
</g>
</svg>
